<svg xmlns="http://www.w3.org/2000/svg" width="1075" height="494" fill="none"><g clip-path="url(#a)"><path fill="#0D47A1" d="M522.554 195.076c44.672 0 80.886-19.939 80.886-44.534 0-24.596-36.214-44.534-80.886-44.534s-80.886 19.938-80.886 44.534c0 24.595 36.214 44.534 80.886 44.534Z"/><path fill="#0D47A1" d="M526.651 267.541c74.665 0 135.194-26.019 135.194-58.114 0-32.096-60.529-58.114-135.194-58.114-74.665 0-135.194 26.018-135.194 58.114 0 32.095 60.529 58.114 135.194 58.114Z"/><path fill="#0D47A1" d="M459.296 193.658c22.531 0 40.796-13.144 40.796-29.359 0-16.214-18.265-29.358-40.796-29.358S418.5 148.085 418.5 164.299c0 16.215 18.265 29.359 40.796 29.359ZM610.901 196.093c22.842 0 41.359-11.222 41.359-25.066s-18.517-25.067-41.359-25.067c-22.843 0-41.36 11.223-41.36 25.067s18.517 25.066 41.36 25.066Z"/><path fill="#0D47A1" d="M660.488 255.597c33.135 0 59.996-16.931 59.996-37.817 0-20.887-26.861-37.818-59.996-37.818-33.135 0-59.996 16.931-59.996 37.818 0 20.886 26.861 37.817 59.996 37.817ZM407.074 266.21c35.388 0 64.075-19.28 64.075-43.064 0-23.783-28.687-43.063-64.075-43.063-35.387 0-64.074 19.28-64.074 43.063 0 23.784 28.687 43.064 64.074 43.064ZM553.161 281.925c33.095 0 59.924-10.173 59.924-22.722 0-12.549-26.829-22.722-59.924-22.722-33.096 0-59.925 10.173-59.925 22.722 0 12.549 26.829 22.722 59.925 22.722Z"/><path fill="#0D47A1" d="M468.189 283.194c27.658 0 50.079-10.69 50.079-23.877 0-13.188-22.421-23.878-50.079-23.878-27.657 0-50.078 10.69-50.078 23.878 0 13.187 22.421 23.877 50.078 23.877ZM435.553 204.059c22.815 0 41.31-11.659 41.31-26.04 0-14.382-18.495-26.04-41.31-26.04s-41.31 11.658-41.31 26.04c0 14.381 18.495 26.04 41.31 26.04ZM615.776 262.413c17.48 0 31.651-6.801 31.651-15.191s-14.171-15.191-31.651-15.191-31.651 6.801-31.651 15.191 14.171 15.191 31.651 15.191Z"/><path fill="#fff" d="M414.446 225h-11.602v-32.727h11.698c3.292 0 6.126.655 8.501 1.965 2.376 1.3 4.203 3.17 5.482 5.609 1.289 2.44 1.933 5.359 1.933 8.757 0 3.409-.644 6.339-1.933 8.789-1.279 2.451-3.117 4.331-5.514 5.641-2.386 1.311-5.241 1.966-8.565 1.966Zm-4.682-5.929h4.394c2.046 0 3.766-.362 5.162-1.086 1.406-.735 2.461-1.87 3.164-3.404.714-1.545 1.071-3.537 1.071-5.977 0-2.418-.357-4.394-1.071-5.928-.703-1.534-1.752-2.664-3.148-3.388-1.396-.724-3.116-1.087-5.162-1.087h-4.41v20.87ZM435.456 225v-24.545h6.807V225h-6.807Zm3.42-27.71c-1.012 0-1.881-.335-2.605-1.006-.714-.682-1.071-1.497-1.071-2.445 0-.938.357-1.742 1.071-2.413.724-.682 1.593-1.023 2.605-1.023s1.875.341 2.588 1.023c.725.671 1.087 1.475 1.087 2.413 0 .948-.362 1.763-1.087 2.445-.713.671-1.576 1.006-2.588 1.006Zm31.724 3.165L462.019 225h-7.671l-8.581-24.545h7.191l5.098 17.562h.255l5.082-17.562h7.207Zm13.879 25.024c-2.525 0-4.698-.511-6.52-1.534-1.811-1.033-3.207-2.493-4.187-4.378-.98-1.897-1.47-4.139-1.47-6.728 0-2.525.49-4.741 1.47-6.648s2.36-3.393 4.139-4.458c1.79-1.065 3.889-1.598 6.296-1.598 1.62 0 3.127.261 4.523.783 1.406.511 2.631 1.284 3.675 2.317 1.055 1.033 1.875 2.333 2.461 3.899.586 1.556.879 3.377.879 5.465v1.87h-20.726v-4.219h14.318c0-.98-.213-1.848-.639-2.604-.427-.757-1.018-1.348-1.774-1.774-.746-.437-1.614-.655-2.605-.655-1.033 0-1.95.239-2.749.719-.788.468-1.406 1.102-1.853 1.901-.448.789-.677 1.668-.687 2.637v4.011c0 1.215.223 2.264.671 3.148.458.884 1.102 1.566 1.933 2.046.831.479 1.817.719 2.957.719.756 0 1.449-.107 2.077-.32.629-.213 1.167-.533 1.614-.959.448-.426.788-.948 1.023-1.566l6.296.416c-.32 1.513-.975 2.834-1.966 3.963-.98 1.118-2.247 1.992-3.803 2.621-1.545.617-3.329.926-5.353.926Zm15.708-.479v-24.545h6.6v4.282h.256c.447-1.523 1.198-2.674 2.253-3.451 1.055-.789 2.269-1.183 3.643-1.183.341 0 .709.021 1.103.064s.74.101 1.039.176v6.04c-.32-.096-.762-.181-1.327-.256-.564-.074-1.081-.111-1.55-.111-1.001 0-1.896.218-2.684.655-.778.426-1.396 1.023-1.854 1.79-.447.767-.671 1.651-.671 2.652V225h-6.808Zm38.836-17.546-6.232.383c-.107-.532-.336-1.012-.687-1.438-.352-.437-.815-.783-1.391-1.039-.564-.266-1.241-.399-2.029-.399-1.055 0-1.944.224-2.669.671-.724.437-1.086 1.023-1.086 1.758 0 .586.234 1.081.703 1.486.468.405 1.273.73 2.413.975l4.442.895c2.386.49 4.166 1.278 5.337 2.365 1.172 1.086 1.758 2.514 1.758 4.282 0 1.609-.474 3.021-1.422 4.235-.937 1.215-2.226 2.163-3.867 2.845-1.63.671-3.51 1.006-5.641 1.006-3.249 0-5.838-.676-7.766-2.029-1.918-1.364-3.042-3.217-3.372-5.561l6.695-.352c.203.991.693 1.747 1.471 2.269.777.512 1.773.768 2.988.768 1.193 0 2.152-.23 2.876-.688.735-.468 1.108-1.07 1.119-1.805-.011-.618-.272-1.124-.783-1.519-.511-.404-1.3-.713-2.365-.926l-4.251-.847c-2.397-.48-4.181-1.311-5.353-2.493-1.161-1.183-1.742-2.69-1.742-4.523 0-1.576.426-2.935 1.278-4.074.863-1.14 2.072-2.019 3.628-2.637 1.566-.618 3.398-.927 5.497-.927 3.1 0 5.54.655 7.319 1.965 1.79 1.311 2.834 3.095 3.132 5.354ZM543.869 225v-24.545h6.807V225h-6.807Zm3.42-27.71c-1.012 0-1.881-.335-2.605-1.006-.714-.682-1.071-1.497-1.071-2.445 0-.938.357-1.742 1.071-2.413.724-.682 1.593-1.023 2.605-1.023s1.875.341 2.588 1.023c.725.671 1.087 1.475 1.087 2.413 0 .948-.362 1.763-1.087 2.445-.713.671-1.576 1.006-2.588 1.006Zm17.885 28.11c-1.864 0-3.552-.48-5.065-1.439-1.502-.969-2.696-2.391-3.58-4.266-.873-1.886-1.31-4.198-1.31-6.936 0-2.812.453-5.151 1.358-7.015.906-1.875 2.11-3.276 3.612-4.203 1.512-.937 3.169-1.406 4.969-1.406 1.375 0 2.52.234 3.436.703.927.458 1.673 1.033 2.237 1.726.576.682 1.012 1.353 1.311 2.013h.208v-12.304h6.791V225h-6.712v-3.931h-.287c-.32.682-.773 1.358-1.359 2.029-.575.661-1.326 1.21-2.253 1.646-.916.437-2.035.656-3.356.656Zm2.158-5.418c1.097 0 2.024-.298 2.78-.895.767-.607 1.353-1.454 1.758-2.54.416-1.087.623-2.36.623-3.82 0-1.459-.202-2.727-.607-3.803-.405-1.076-.991-1.907-1.758-2.493-.767-.586-1.699-.879-2.796-.879-1.119 0-2.062.304-2.829.911-.767.607-1.347 1.449-1.742 2.525-.394 1.076-.591 2.322-.591 3.739 0 1.428.197 2.69.591 3.788.405 1.086.986 1.938 1.742 2.556.767.608 1.71.911 2.829.911Zm24.405 5.481c-1.566 0-2.961-.271-4.186-.815-1.226-.554-2.195-1.369-2.909-2.445-.703-1.086-1.054-2.439-1.054-4.058 0-1.364.25-2.509.751-3.436.5-.927 1.182-1.673 2.045-2.237.863-.565 1.843-.991 2.94-1.279 1.108-.287 2.27-.49 3.484-.607 1.428-.149 2.578-.288 3.452-.416.873-.138 1.507-.34 1.901-.607.395-.266.592-.66.592-1.182v-.096c0-1.012-.32-1.795-.959-2.349-.629-.554-1.524-.831-2.685-.831-1.225 0-2.2.271-2.924.815-.725.532-1.204 1.204-1.438 2.013l-6.297-.511c.32-1.492.949-2.781 1.886-3.867.938-1.098 2.147-1.939 3.628-2.525 1.491-.597 3.217-.895 5.177-.895 1.364 0 2.669.16 3.915.479 1.257.32 2.371.815 3.34 1.486.98.672 1.753 1.535 2.317 2.589.565 1.044.847 2.296.847 3.756V225h-6.456v-3.404h-.192c-.394.767-.921 1.444-1.582 2.03-.66.575-1.454 1.028-2.381 1.358-.926.32-1.997.479-3.212.479Zm1.95-4.698c1.001 0 1.886-.197 2.653-.591.767-.405 1.369-.948 1.805-1.63.437-.682.656-1.454.656-2.317v-2.605c-.213.139-.506.266-.879.384-.363.106-.773.207-1.231.303-.458.086-.916.165-1.374.24-.458.064-.874.123-1.247.176-.799.117-1.496.303-2.093.559-.596.256-1.06.602-1.39 1.039-.33.426-.496.959-.496 1.598 0 .927.336 1.635 1.007 2.125.682.48 1.545.719 2.589.719Zm26.199 4.635c-1.864 0-3.553-.48-5.065-1.439-1.502-.969-2.696-2.391-3.58-4.266-.873-1.886-1.31-4.198-1.31-6.936 0-2.812.453-5.151 1.358-7.015.906-1.875 2.109-3.276 3.612-4.203 1.512-.937 3.169-1.406 4.969-1.406 1.375 0 2.52.234 3.436.703.927.458 1.673 1.033 2.237 1.726.576.682 1.012 1.353 1.311 2.013h.207v-12.304h6.792V225h-6.712v-3.931h-.287c-.32.682-.773 1.358-1.359 2.029-.575.661-1.326 1.21-2.253 1.646-.916.437-2.035.656-3.356.656Zm2.158-5.418c1.097 0 2.024-.298 2.78-.895.767-.607 1.353-1.454 1.758-2.54.416-1.087.623-2.36.623-3.82 0-1.459-.202-2.727-.607-3.803-.405-1.076-.991-1.907-1.758-2.493-.767-.586-1.699-.879-2.796-.879-1.119 0-2.062.304-2.829.911-.767.607-1.347 1.449-1.742 2.525-.394 1.076-.591 2.322-.591 3.739 0 1.428.197 2.69.591 3.788.405 1.086.986 1.938 1.742 2.556.767.608 1.71.911 2.829.911Zm28.592 5.497c-2.525 0-4.698-.511-6.52-1.534-1.811-1.033-3.206-2.493-4.187-4.378-.98-1.897-1.47-4.139-1.47-6.728 0-2.525.49-4.741 1.47-6.648.981-1.907 2.36-3.393 4.139-4.458 1.79-1.065 3.889-1.598 6.296-1.598 1.62 0 3.127.261 4.523.783 1.406.511 2.631 1.284 3.675 2.317 1.055 1.033 1.875 2.333 2.461 3.899.586 1.556.879 3.377.879 5.465v1.87h-20.726v-4.219h14.318c0-.98-.213-1.848-.639-2.604-.426-.757-1.018-1.348-1.774-1.774-.746-.437-1.614-.655-2.605-.655-1.033 0-1.949.239-2.748.719-.789.468-1.407 1.102-1.854 1.901-.447.789-.676 1.668-.687 2.637v4.011c0 1.215.224 2.264.671 3.148.458.884 1.103 1.566 1.934 2.046.831.479 1.816.719 2.956.719.756 0 1.449-.107 2.077-.32.629-.213 1.167-.533 1.614-.959.448-.426.789-.948 1.023-1.566l6.296.416c-.319 1.513-.975 2.834-1.965 3.963-.98 1.118-2.248 1.992-3.804 2.621-1.544.617-3.329.926-5.353.926Z"/></g><g clip-path="url(#b)"><path fill="#66BB6A" d="M528.554 405.076c44.672 0 80.886-19.939 80.886-44.534 0-24.596-36.214-44.534-80.886-44.534s-80.886 19.938-80.886 44.534c0 24.595 36.214 44.534 80.886 44.534Z"/><path fill="#66BB6A" d="M532.651 477.541c74.665 0 135.194-26.019 135.194-58.114 0-32.096-60.529-58.114-135.194-58.114-74.665 0-135.194 26.018-135.194 58.114 0 32.095 60.529 58.114 135.194 58.114Z"/><path fill="#66BB6A" d="M465.296 403.658c22.531 0 40.796-13.144 40.796-29.359 0-16.214-18.265-29.358-40.796-29.358S424.5 358.085 424.5 374.299c0 16.215 18.265 29.359 40.796 29.359ZM616.901 406.093c22.842 0 41.359-11.222 41.359-25.066s-18.517-25.067-41.359-25.067c-22.843 0-41.36 11.223-41.36 25.067s18.517 25.066 41.36 25.066Z"/><path fill="#66BB6A" d="M666.488 465.597c33.135 0 59.996-16.931 59.996-37.817 0-20.887-26.861-37.818-59.996-37.818-33.135 0-59.996 16.931-59.996 37.818 0 20.886 26.861 37.817 59.996 37.817ZM413.074 476.21c35.388 0 64.075-19.28 64.075-43.064 0-23.783-28.687-43.063-64.075-43.063-35.387 0-64.074 19.28-64.074 43.063 0 23.784 28.687 43.064 64.074 43.064ZM559.161 491.925c33.095 0 59.924-10.173 59.924-22.722 0-12.549-26.829-22.722-59.924-22.722-33.096 0-59.925 10.173-59.925 22.722 0 12.549 26.829 22.722 59.925 22.722Z"/><path fill="#66BB6A" d="M474.189 493.194c27.658 0 50.079-10.69 50.079-23.877 0-13.188-22.421-23.878-50.079-23.878-27.657 0-50.078 10.69-50.078 23.878 0 13.187 22.421 23.877 50.078 23.877ZM441.553 414.059c22.815 0 41.31-11.659 41.31-26.04 0-14.382-18.495-26.04-41.31-26.04s-41.31 11.658-41.31 26.04c0 14.381 18.495 26.04 41.31 26.04ZM621.776 472.413c17.48 0 31.651-6.801 31.651-15.191s-14.171-15.191-31.651-15.191-31.651 6.801-31.651 15.191 14.171 15.191 31.651 15.191Z"/><path fill="#fff" d="M438.844 430v-32.727h12.912c2.472 0 4.581.442 6.329 1.326 1.757.874 3.094 2.115 4.011 3.723.926 1.598 1.39 3.479 1.39 5.641 0 2.174-.469 4.043-1.406 5.609-.938 1.556-2.296 2.749-4.075 3.58-1.769.831-3.91 1.246-6.424 1.246h-8.646v-5.561h7.527c1.321 0 2.418-.181 3.292-.543.873-.362 1.523-.906 1.949-1.63.437-.724.656-1.625.656-2.701 0-1.086-.219-2.002-.656-2.748-.426-.746-1.081-1.311-1.965-1.694-.874-.394-1.976-.591-3.308-.591h-4.666V430h-6.92Zm17.674-14.893L464.652 430h-7.638l-7.958-14.893h7.462Zm22.52 15.372c-2.524 0-4.698-.511-6.519-1.534-1.812-1.033-3.207-2.493-4.187-4.378-.98-1.897-1.47-4.139-1.47-6.728 0-2.525.49-4.741 1.47-6.648s2.359-3.393 4.139-4.458c1.789-1.065 3.888-1.598 6.296-1.598 1.619 0 3.127.261 4.522.783 1.406.511 2.632 1.284 3.676 2.317 1.054 1.033 1.875 2.333 2.461 3.899.585 1.556.878 3.377.878 5.465v1.87h-20.726v-4.219h14.318c0-.98-.213-1.848-.639-2.604-.426-.757-1.017-1.348-1.774-1.774-.745-.437-1.614-.655-2.604-.655-1.034 0-1.95.239-2.749.719-.788.468-1.406 1.102-1.854 1.901-.447.789-.676 1.668-.687 2.637v4.011c0 1.215.224 2.264.671 3.148.458.884 1.103 1.566 1.934 2.046.831.479 1.816.719 2.956.719.757 0 1.449-.107 2.078-.32.628-.213 1.166-.533 1.614-.959.447-.426.788-.948 1.022-1.566l6.297.416c-.32 1.513-.975 2.834-1.966 3.963-.98 1.118-2.248 1.992-3.803 2.621-1.545.617-3.329.926-5.354.926Zm36.131-18.025-6.232.383c-.106-.532-.335-1.012-.687-1.438-.351-.437-.815-.783-1.39-1.039-.565-.266-1.241-.399-2.03-.399-1.054 0-1.944.224-2.668.671-.725.437-1.087 1.023-1.087 1.758 0 .586.234 1.081.703 1.486s1.273.73 2.413.975l4.443.895c2.386.49 4.165 1.278 5.337 2.365 1.172 1.086 1.758 2.514 1.758 4.282 0 1.609-.474 3.021-1.422 4.235-.938 1.215-2.227 2.163-3.868 2.845-1.63.671-3.51 1.006-5.641 1.006-3.249 0-5.838-.676-7.766-2.029-1.918-1.364-3.041-3.217-3.372-5.561l6.696-.352c.202.991.692 1.747 1.47 2.269.778.512 1.774.768 2.988.768 1.194 0 2.152-.23 2.877-.688.735-.468 1.108-1.07 1.118-1.805-.01-.618-.271-1.124-.783-1.519-.511-.404-1.299-.713-2.365-.926l-4.25-.847c-2.397-.48-4.182-1.311-5.354-2.493-1.161-1.183-1.742-2.69-1.742-4.523 0-1.576.427-2.935 1.279-4.074.863-1.14 2.072-2.019 3.627-2.637 1.566-.618 3.399-.927 5.497-.927 3.101 0 5.54.655 7.319 1.965 1.79 1.311 2.834 3.095 3.132 5.354Zm4.846 26.751v-33.75h6.712v4.122h.304c.298-.66.729-1.331 1.294-2.013.575-.693 1.321-1.268 2.237-1.726.927-.469 2.078-.703 3.452-.703 1.79 0 3.441.469 4.954 1.406 1.513.927 2.722 2.328 3.627 4.203.906 1.864 1.359 4.203 1.359 7.015 0 2.738-.442 5.05-1.327 6.936-.873 1.875-2.066 3.297-3.579 4.266-1.502.959-3.186 1.439-5.05 1.439-1.321 0-2.445-.219-3.372-.656-.916-.436-1.667-.985-2.253-1.646-.586-.671-1.033-1.347-1.342-2.029h-.208v13.136h-6.808Zm6.664-21.478c0 1.46.203 2.733.607 3.82.405 1.086.991 1.933 1.758 2.54.767.597 1.699.895 2.797.895 1.108 0 2.045-.303 2.812-.911.767-.618 1.348-1.47 1.742-2.556.405-1.098.607-2.36.607-3.788 0-1.417-.197-2.663-.591-3.739-.394-1.076-.975-1.918-1.742-2.525s-1.71-.911-2.828-.911c-1.108 0-2.046.293-2.813.879-.756.586-1.337 1.417-1.742 2.493-.404 1.076-.607 2.344-.607 3.803Zm32.999 12.752c-2.525 0-4.698-.511-6.52-1.534-1.811-1.033-3.206-2.493-4.187-4.378-.98-1.897-1.47-4.139-1.47-6.728 0-2.525.49-4.741 1.47-6.648.981-1.907 2.36-3.393 4.139-4.458 1.79-1.065 3.889-1.598 6.296-1.598 1.62 0 3.127.261 4.523.783 1.406.511 2.631 1.284 3.675 2.317 1.055 1.033 1.875 2.333 2.461 3.899.586 1.556.879 3.377.879 5.465v1.87h-20.726v-4.219h14.318c0-.98-.213-1.848-.639-2.604-.426-.757-1.018-1.348-1.774-1.774-.746-.437-1.614-.655-2.605-.655-1.033 0-1.949.239-2.748.719-.789.468-1.407 1.102-1.854 1.901-.447.789-.676 1.668-.687 2.637v4.011c0 1.215.224 2.264.671 3.148.458.884 1.103 1.566 1.934 2.046.831.479 1.816.719 2.956.719.756 0 1.449-.107 2.077-.32.629-.213 1.167-.533 1.614-.959.448-.426.789-.948 1.023-1.566l6.296.416c-.319 1.513-.975 2.834-1.965 3.963-.98 1.118-2.248 1.992-3.804 2.621-1.544.617-3.329.926-5.353.926Zm15.709-.479v-24.545h6.807V430h-6.807Zm3.419-27.71c-1.012 0-1.88-.335-2.604-1.006-.714-.682-1.071-1.497-1.071-2.445 0-.938.357-1.742 1.071-2.413.724-.682 1.592-1.023 2.604-1.023s1.875.341 2.589 1.023c.724.671 1.087 1.475 1.087 2.413 0 .948-.363 1.763-1.087 2.445-.714.671-1.577 1.006-2.589 1.006Zm21.897 3.165v5.113h-14.782v-5.113h14.782Zm-11.426-5.881h6.808v22.883c0 .629.096 1.119.287 1.471.192.34.459.58.799.719.352.138.757.207 1.215.207.32 0 .639-.026.959-.079.319-.064.564-.112.735-.144l1.07 5.065c-.34.107-.82.229-1.438.368-.618.149-1.369.24-2.253.272-1.641.064-3.079-.155-4.315-.656-1.225-.5-2.178-1.278-2.86-2.333-.682-1.054-1.017-2.386-1.007-3.995v-23.778Zm26.687 30.905c-2.482 0-4.629-.527-6.44-1.582-1.8-1.065-3.191-2.546-4.171-4.442-.98-1.907-1.47-4.118-1.47-6.632 0-2.535.49-4.751 1.47-6.648.98-1.907 2.371-3.387 4.171-4.442 1.811-1.065 3.958-1.598 6.44-1.598s4.624.533 6.424 1.598c1.811 1.055 3.207 2.535 4.187 4.442.98 1.897 1.47 4.113 1.47 6.648 0 2.514-.49 4.725-1.47 6.632-.98 1.896-2.376 3.377-4.187 4.442-1.8 1.055-3.942 1.582-6.424 1.582Zm.032-5.273c1.129 0 2.072-.32 2.828-.959.757-.65 1.327-1.534 1.71-2.653.395-1.118.592-2.391.592-3.819 0-1.427-.197-2.7-.592-3.819-.383-1.119-.953-2.003-1.71-2.653-.756-.65-1.699-.975-2.828-.975-1.14 0-2.099.325-2.876.975-.767.65-1.348 1.534-1.742 2.653-.384 1.119-.576 2.392-.576 3.819 0 1.428.192 2.701.576 3.819.394 1.119.975 2.003 1.742 2.653.777.639 1.736.959 2.876.959Z"/></g><g clip-path="url(#c)"><path fill="#F9A825" d="M854.554 92.0759c44.672 0 80.886-19.9387 80.886-44.5342 0-24.5955-36.214-44.53416-80.886-44.53416S773.668 22.9462 773.668 47.5417s36.214 44.5342 80.886 44.5342Z"/><path fill="#F9A825" d="M858.651 164.541c74.665 0 135.194-26.019 135.194-58.114 0-32.0957-60.529-58.1143-135.194-58.1143-74.665 0-135.194 26.0186-135.194 58.1143 0 32.095 60.529 58.114 135.194 58.114Z"/><path fill="#F9A825" d="M791.296 90.6578c22.531 0 40.796-13.1443 40.796-29.3586s-18.265-29.3586-40.796-29.3586S750.5 45.0849 750.5 61.2992s18.265 29.3586 40.796 29.3586ZM942.901 93.0933c22.842 0 41.359-11.2227 41.359-25.0666 0-13.8439-18.517-25.0665-41.359-25.0665-22.843 0-41.36 11.2226-41.36 25.0665 0 13.8439 18.517 25.0666 41.36 25.0666Z"/><path fill="#F9A825" d="M992.488 152.597c33.132 0 59.992-16.931 59.992-37.817 0-20.8868-26.86-37.8185-59.992-37.8185-33.135 0-59.996 16.9317-59.996 37.8185 0 20.886 26.861 37.817 59.996 37.817ZM739.074 163.21c35.388 0 64.075-19.28 64.075-43.064 0-23.7831-28.687-43.0635-64.075-43.0635-35.387 0-64.074 19.2804-64.074 43.0635 0 23.784 28.687 43.064 64.074 43.064ZM885.161 178.925c33.095 0 59.924-10.173 59.924-22.722 0-12.549-26.829-22.722-59.924-22.722-33.096 0-59.925 10.173-59.925 22.722 0 12.549 26.829 22.722 59.925 22.722Z"/><path fill="#F9A825" d="M800.189 180.194c27.658 0 50.079-10.69 50.079-23.877 0-13.188-22.421-23.878-50.079-23.878-27.657 0-50.078 10.69-50.078 23.878 0 13.187 22.421 23.877 50.078 23.877ZM767.553 101.059c22.815 0 41.31-11.6585 41.31-26.0401 0-14.3816-18.495-26.0402-41.31-26.0402s-41.31 11.6586-41.31 26.0402c0 14.3816 18.495 26.0401 41.31 26.0401ZM947.776 159.413c17.48 0 31.651-6.801 31.651-15.191s-14.171-15.191-31.651-15.191-31.651 6.801-31.651 15.191 14.171 15.191 31.651 15.191Z"/><path fill="#fff" d="M806.844 118V85.2727h22.053v5.7049h-15.133v7.7983h13.998v5.7051h-13.998v7.814h15.197V118h-22.117Zm8.63-35.8913 3.388-7.271h6.296l-4.874 7.271h-4.81Zm31.852 11.3458v5.1137h-14.782v-5.1137h14.782ZM835.9 87.5739h6.808v22.8831c0 .629.096 1.119.287 1.471.192.34.459.58.799.719.352.138.757.207 1.215.207.32 0 .639-.026.959-.079.319-.064.564-.112.735-.144l1.071 5.065c-.341.107-.821.229-1.439.368-.618.149-1.369.24-2.253.272-1.641.064-3.079-.155-4.315-.656-1.225-.5-2.178-1.278-2.86-2.333-.682-1.054-1.017-2.386-1.007-3.995V87.5739ZM851.761 118V93.4545h6.807V118h-6.807Zm3.419-27.7095c-1.012 0-1.88-.3356-2.604-1.0068-.714-.6818-1.071-1.4968-1.071-2.4449 0-.9375.357-1.7419 1.071-2.413.724-.6818 1.592-1.0227 2.604-1.0227s1.875.3409 2.589 1.0227c.725.6711 1.087 1.4755 1.087 2.413 0 .9481-.362 1.7631-1.087 2.4449-.714.6712-1.577 1.0068-2.589 1.0068Zm19.932 28.1885c-2.515 0-4.677-.532-6.488-1.598-1.801-1.076-3.186-2.567-4.155-4.474-.959-1.907-1.438-4.102-1.438-6.584 0-2.514.484-4.719 1.454-6.6156.98-1.907 2.37-3.3931 4.171-4.4585 1.8-1.076 3.941-1.614 6.424-1.614 2.141 0 4.016.3889 5.625 1.1666 1.608.7777 2.881 1.8697 3.819 3.2759.937 1.4063 1.454 3.0576 1.55 4.9536h-6.424c-.181-1.225-.661-2.21-1.438-2.9561-.767-.7564-1.774-1.1346-3.021-1.1346-1.054 0-1.976.2877-2.764.863-.778.5646-1.385 1.3907-1.822 2.4767-.437 1.087-.655 2.403-.655 3.947 0 1.566.213 2.898.639 3.995.437 1.098 1.049 1.934 1.838 2.509.788.575 1.71.863 2.764.863.778 0 1.476-.16 2.094-.479.628-.32 1.145-.783 1.55-1.391.415-.617.687-1.358.815-2.221h6.424c-.107 1.875-.618 3.526-1.534 4.954-.906 1.417-2.158 2.525-3.756 3.324-1.598.799-3.489 1.198-5.672 1.198Zm22.32-.016c-1.566 0-2.962-.271-4.187-.815-1.225-.554-2.195-1.369-2.908-2.445-.704-1.086-1.055-2.439-1.055-4.058 0-1.364.25-2.509.751-3.436s1.182-1.673 2.045-2.237c.863-.565 1.843-.991 2.941-1.279 1.108-.287 2.269-.49 3.483-.607 1.428-.149 2.579-.288 3.452-.416.874-.138 1.508-.34 1.902-.607.394-.266.591-.66.591-1.182v-.096c0-1.012-.32-1.7953-.959-2.3493-.628-.554-1.523-.8309-2.684-.8309-1.226 0-2.2.2716-2.925.8149-.724.5327-1.204 1.2043-1.438 2.0133l-6.296-.511c.319-1.4916.948-2.7807 1.885-3.8673.938-1.0973 2.147-1.9389 3.628-2.5249 1.491-.5966 3.217-.8949 5.177-.8949 1.364 0 2.669.1598 3.916.4794 1.257.3196 2.37.815 3.339 1.4862.981.6712 1.753 1.5341 2.318 2.5888.564 1.044.847 2.2958.847 3.7557V118h-6.456v-3.404h-.192c-.394.767-.922 1.444-1.582 2.03-.661.575-1.454 1.028-2.381 1.358-.927.32-1.998.479-3.212.479Zm1.949-4.698c1.002 0 1.886-.197 2.653-.591.767-.405 1.369-.948 1.806-1.63.437-.682.655-1.454.655-2.317v-2.605c-.213.139-.506.266-.879.384-.362.106-.772.207-1.23.303-.459.086-.917.165-1.375.24-.458.064-.873.123-1.246.176-.799.117-1.497.303-2.094.559-.596.256-1.06.602-1.39 1.039-.33.426-.495.959-.495 1.598 0 .927.335 1.635 1.007 2.125.681.48 1.544.719 2.588.719Z"/></g><g clip-path="url(#d)"><path fill="#F06292" d="M193.554 89.0759c44.672 0 80.886-19.9387 80.886-44.5342 0-24.5955-36.214-44.53416216-80.886-44.53416216S112.668 19.9462 112.668 44.5417s36.214 44.5342 80.886 44.5342Z"/><path fill="#F06292" d="M197.651 161.541c74.665 0 135.194-26.019 135.194-58.114 0-32.0957-60.529-58.1143-135.194-58.1143-74.665 0-135.1937 26.0186-135.1937 58.1143 0 32.095 60.5287 58.114 135.1937 58.114Z"/><path fill="#F06292" d="M130.296 87.6578c22.531 0 40.796-13.1443 40.796-29.3586s-18.265-29.3586-40.796-29.3586-40.7962 13.1443-40.7962 29.3586 18.2652 29.3586 40.7962 29.3586ZM281.901 90.0933c22.842 0 41.359-11.2227 41.359-25.0666 0-13.8439-18.517-25.0665-41.359-25.0665-22.843 0-41.36 11.2226-41.36 25.0665 0 13.8439 18.517 25.0666 41.36 25.0666Z"/><path fill="#F06292" d="M331.488 149.597c33.135 0 59.996-16.931 59.996-37.817 0-20.8868-26.861-37.8185-59.996-37.8185-33.135 0-59.996 16.9317-59.996 37.8185 0 20.886 26.861 37.817 59.996 37.817ZM78.0743 160.21c35.3877 0 64.0747-19.28 64.0747-43.064 0-23.7831-28.687-43.0635-64.0747-43.0635C42.687 74.0825 14 93.3629 14 117.146c0 23.784 28.687 43.064 64.0743 43.064ZM224.161 175.925c33.095 0 59.924-10.173 59.924-22.722 0-12.549-26.829-22.722-59.924-22.722-33.096 0-59.925 10.173-59.925 22.722 0 12.549 26.829 22.722 59.925 22.722Z"/><path fill="#F06292" d="M139.189 177.194c27.658 0 50.079-10.69 50.079-23.877 0-13.188-22.421-23.878-50.079-23.878-27.657 0-50.0784 10.69-50.0784 23.878 0 13.187 22.4214 23.877 50.0784 23.877ZM106.553 98.0591c22.815 0 41.31-11.6586 41.31-26.0402 0-14.3816-18.495-26.0402-41.31-26.0402-22.8149 0-41.3102 11.6586-41.3102 26.0402 0 14.3816 18.4953 26.0402 41.3102 26.0402ZM286.776 156.413c17.48 0 31.651-6.801 31.651-15.191s-14.171-15.191-31.651-15.191-31.651 6.801-31.651 15.191 14.171 15.191 31.651 15.191Z"/><path fill="#fff" d="M110.844 115V82.2727h22.053v5.7049h-15.133v7.7983h13.998v5.7051h-13.998v7.814h15.197V115h-22.117Zm27.426 0V90.4545h6.488v4.3307h.288c.511-1.4383 1.364-2.5728 2.557-3.4038 1.193-.831 2.62-1.2465 4.282-1.2465 1.684 0 3.117.4209 4.299 1.2625 1.183.8309 1.971 1.9602 2.365 3.3878h.256c.5-1.4063 1.406-2.5302 2.716-3.3718 1.321-.8523 2.882-1.2785 4.683-1.2785 2.29 0 4.149.7298 5.577 2.1893 1.438 1.4489 2.157 3.505 2.157 6.1683V115h-6.792V99.8349c0-1.3637-.362-2.3864-1.086-3.0682-.725-.6818-1.63-1.0227-2.717-1.0227-1.236 0-2.2.3941-2.892 1.1825-.693.7777-1.039 1.8057-1.039 3.0845V115h-6.6V99.6911c0-1.2039-.346-2.1627-1.038-2.8765-.682-.7137-1.583-1.0706-2.701-1.0706-.757 0-1.438.1917-2.046.5752-.596.3729-1.07.9003-1.422 1.5821-.351.6711-.527 1.4595-.527 2.3647V115h-6.808Zm41.045 9.205V90.4545h6.712v4.1229h.304c.298-.6605.729-1.3317 1.294-2.0135.575-.6925 1.321-1.2677 2.237-1.7258.927-.4688 2.078-.7032 3.452-.7032 1.79 0 3.441.4688 4.954 1.4063 1.512.9268 2.722 2.3278 3.627 4.2028.906 1.8643 1.358 4.2027 1.358 7.015 0 2.738-.442 5.05-1.326 6.936-.873 1.875-2.067 3.297-3.579 4.266-1.503.959-3.186 1.439-5.05 1.439-1.321 0-2.445-.219-3.372-.656-.916-.436-1.667-.985-2.253-1.646-.586-.671-1.034-1.347-1.342-2.029h-.208v13.136h-6.808Zm6.664-21.478c0 1.46.202 2.733.607 3.82.405 1.086.991 1.933 1.758 2.54.767.597 1.699.895 2.797.895 1.107 0 2.045-.303 2.812-.911.767-.618 1.348-1.47 1.742-2.556.405-1.098.607-2.36.607-3.788 0-1.417-.197-2.663-.591-3.7391-.394-1.076-.975-1.9176-1.742-2.5248-.767-.6073-1.71-.9109-2.828-.9109-1.108 0-2.046.293-2.813.8789-.756.5859-1.337 1.4169-1.742 2.4929s-.607 2.344-.607 3.803Zm28.812 12.736c-1.566 0-2.962-.271-4.187-.815-1.225-.554-2.194-1.369-2.908-2.445-.703-1.086-1.055-2.439-1.055-4.058 0-1.364.251-2.509.751-3.436.501-.927 1.183-1.673 2.046-2.237.863-.565 1.843-.991 2.94-1.279 1.108-.287 2.269-.49 3.484-.607 1.427-.149 2.578-.288 3.451-.416.874-.138 1.508-.3405 1.902-.6068.394-.2663.591-.6605.591-1.1825v-.0959c0-1.0121-.319-1.7951-.958-2.3491-.629-.554-1.524-.8309-2.685-.8309-1.225 0-2.2.2716-2.924.8149-.725.5327-1.204 1.2039-1.439 2.0135l-6.296-.5113c.32-1.4915.948-2.7806 1.886-3.8672.937-1.0973 2.146-1.9389 3.627-2.5249 1.492-.5966 3.218-.8949 5.178-.8949 1.364 0 2.669.1598 3.915.4794 1.257.3196 2.37.815 3.34 1.4862.98.6712 1.752 1.5341 2.317 2.5888.565 1.044.847 2.2958.847 3.7553V115h-6.456v-3.404h-.192c-.394.767-.921 1.444-1.582 2.03-.66.575-1.454 1.028-2.381 1.358-.927.32-1.997.479-3.212.479Zm1.95-4.698c1.001 0 1.885-.197 2.652-.591.767-.405 1.369-.948 1.806-1.63.437-.682.655-1.454.655-2.317v-2.605c-.213.139-.506.266-.879.384-.362.106-.772.207-1.23.303-.458.086-.916.165-1.374.24-.458.064-.874.123-1.247.176-.799.117-1.497.303-2.093.559-.597.256-1.06.602-1.39 1.039-.331.426-.496.959-.496 1.598 0 .927.336 1.635 1.007 2.125.682.48 1.545.719 2.589.719Zm30.21-20.3105v5.1137h-14.782v-5.1137h14.782Zm-11.426-5.8806h6.808v22.8831c0 .629.096 1.119.287 1.471.192.34.459.58.799.719.352.138.757.207 1.215.207.32 0 .639-.026.959-.079.319-.064.564-.112.735-.144l1.071 5.065c-.341.107-.821.229-1.439.368-.618.149-1.369.24-2.253.272-1.641.064-3.079-.155-4.315-.656-1.225-.5-2.178-1.278-2.86-2.333-.682-1.054-1.017-2.386-1.007-3.995V84.5739ZM251.386 115V90.4545h6.807V115h-6.807Zm3.419-27.7095c-1.012 0-1.88-.3356-2.604-1.0068-.714-.6818-1.071-1.4968-1.071-2.4449 0-.9375.357-1.7419 1.071-2.413.724-.6818 1.592-1.0227 2.604-1.0227s1.875.3409 2.589 1.0227c.725.6711 1.087 1.4755 1.087 2.413 0 .9481-.362 1.7631-1.087 2.4449-.714.6712-1.577 1.0068-2.589 1.0068Zm15.841 28.1725c-1.566 0-2.962-.271-4.187-.815-1.225-.554-2.195-1.369-2.909-2.445-.703-1.086-1.054-2.439-1.054-4.058 0-1.364.25-2.509.751-3.436s1.182-1.673 2.045-2.237c.863-.565 1.843-.991 2.941-1.279 1.108-.287 2.269-.49 3.483-.607 1.428-.149 2.578-.288 3.452-.416.874-.138 1.507-.3405 1.902-.6068.394-.2663.591-.6605.591-1.1825v-.0959c0-1.0121-.32-1.7951-.959-2.3491-.628-.554-1.523-.8309-2.685-.8309-1.225 0-2.2.2716-2.924.8149-.724.5327-1.204 1.2039-1.438 2.0135l-6.296-.5113c.319-1.4915.948-2.7806 1.885-3.8672.938-1.0973 2.147-1.9389 3.628-2.5249 1.491-.5966 3.217-.8949 5.177-.8949 1.364 0 2.669.1598 3.915.4794 1.258.3196 2.371.815 3.34 1.4862.98.6712 1.753 1.5341 2.317 2.5888.565 1.044.847 2.2958.847 3.7553V115h-6.456v-3.404h-.191c-.395.767-.922 1.444-1.582 2.03-.661.575-1.455 1.028-2.381 1.358-.927.32-1.998.479-3.212.479Zm1.949-4.698c1.002 0 1.886-.197 2.653-.591.767-.405 1.369-.948 1.806-1.63.436-.682.655-1.454.655-2.317v-2.605c-.213.139-.506.266-.879.384-.362.106-.772.207-1.231.303-.458.086-.916.165-1.374.24-.458.064-.873.123-1.246.176-.799.117-1.497.303-2.094.559-.596.256-1.06.602-1.39 1.039-.33.426-.495.959-.495 1.598 0 .927.335 1.635 1.006 2.125.682.48 1.545.719 2.589.719Z"/></g><g clip-path="url(#e)"><path fill="#FFEE58" d="M876.554 318.076c44.672 0 80.886-19.939 80.886-44.534 0-24.596-36.214-44.534-80.886-44.534s-80.886 19.938-80.886 44.534c0 24.595 36.214 44.534 80.886 44.534Z"/><path fill="#FFEE58" d="M880.651 390.541c74.665 0 135.189-26.019 135.189-58.114 0-32.096-60.524-58.114-135.189-58.114-74.665 0-135.194 26.018-135.194 58.114 0 32.095 60.529 58.114 135.194 58.114Z"/><path fill="#FFEE58" d="M813.296 316.658c22.531 0 40.796-13.144 40.796-29.359 0-16.214-18.265-29.358-40.796-29.358S772.5 271.085 772.5 287.299c0 16.215 18.265 29.359 40.796 29.359ZM964.901 319.093c22.842 0 41.359-11.222 41.359-25.066s-18.517-25.067-41.359-25.067c-22.843 0-41.36 11.223-41.36 25.067s18.517 25.066 41.36 25.066Z"/><path fill="#FFEE58" d="M1014.49 378.597c33.13 0 59.99-16.931 59.99-37.817 0-20.887-26.86-37.818-59.99-37.818-33.137 0-59.998 16.931-59.998 37.818 0 20.886 26.861 37.817 59.998 37.817ZM761.074 389.21c35.388 0 64.075-19.28 64.075-43.064 0-23.783-28.687-43.063-64.075-43.063-35.387 0-64.074 19.28-64.074 43.063 0 23.784 28.687 43.064 64.074 43.064ZM907.161 404.925c33.095 0 59.924-10.173 59.924-22.722 0-12.549-26.829-22.722-59.924-22.722-33.096 0-59.925 10.173-59.925 22.722 0 12.549 26.829 22.722 59.925 22.722Z"/><path fill="#FFEE58" d="M822.189 406.194c27.658 0 50.079-10.69 50.079-23.877 0-13.188-22.421-23.878-50.079-23.878-27.657 0-50.078 10.69-50.078 23.878 0 13.187 22.421 23.877 50.078 23.877ZM789.553 327.059c22.815 0 41.31-11.659 41.31-26.04 0-14.382-18.495-26.04-41.31-26.04s-41.31 11.658-41.31 26.04c0 14.381 18.495 26.04 41.31 26.04ZM969.776 385.413c17.48 0 31.654-6.801 31.654-15.191s-14.174-15.191-31.654-15.191-31.651 6.801-31.651 15.191 14.171 15.191 31.651 15.191Z"/><path fill="#fff" d="M749.149 343v-24.727h9.756c1.867 0 3.461.334 4.781 1.002 1.328.66 2.338 1.598 3.031 2.813.7 1.207 1.05 2.628 1.05 4.262 0 1.642-.354 3.055-1.062 4.238-.709 1.175-1.735 2.077-3.079 2.705-1.336.627-2.954.941-4.854.941h-6.532v-4.201h5.687c.998 0 1.827-.137 2.487-.411.66-.274 1.151-.684 1.473-1.231.33-.548.495-1.228.495-2.041 0-.821-.165-1.513-.495-2.077-.322-.563-.817-.99-1.485-1.279-.66-.298-1.493-.447-2.499-.447h-3.526V343h-5.228Zm13.354-11.253L768.648 343h-5.771l-6.013-11.253h5.639Zm17.015 11.615c-1.908 0-3.55-.386-4.926-1.159-1.369-.781-2.423-1.883-3.164-3.308-.74-1.433-1.11-3.127-1.11-5.083 0-1.908.37-3.582 1.11-5.023.741-1.441 1.783-2.564 3.128-3.369 1.352-.804 2.938-1.207 4.757-1.207 1.223 0 2.362.197 3.417.592 1.062.386 1.988.97 2.777 1.75.796.781 1.416 1.763 1.859 2.946.443 1.176.664 2.552.664 4.13v1.412h-15.66v-3.187h10.818c0-.741-.161-1.397-.483-1.968-.322-.572-.768-1.018-1.34-1.34-.563-.33-1.219-.495-1.968-.495-.781 0-1.473.181-2.077.543-.595.354-1.062.833-1.4 1.437-.338.595-.511 1.259-.519 1.992v3.03c0 .918.169 1.711.507 2.379.346.668.833 1.183 1.461 1.545.628.363 1.372.544 2.233.544.572 0 1.095-.081 1.57-.242.475-.161.881-.402 1.22-.724.338-.322.595-.717.772-1.183l4.757.314c-.241 1.142-.736 2.141-1.485 2.994-.74.845-1.698 1.505-2.873 1.98-1.167.467-2.516.7-4.045.7Zm27.299-13.619-4.709.29c-.08-.403-.253-.765-.519-1.087-.266-.33-.616-.592-1.05-.785-.427-.201-.938-.302-1.534-.302-.797 0-1.469.169-2.016.507-.548.33-.821.773-.821 1.329 0 .442.177.817.531 1.122.354.306.962.552 1.823.737l3.357.676c1.803.37 3.147.966 4.032 1.787.886.821 1.329 1.9 1.329 3.236 0 1.215-.359 2.282-1.075 3.199-.708.918-1.682 1.634-2.922 2.15-1.231.507-2.652.76-4.262.76-2.455 0-4.411-.511-5.868-1.533-1.449-1.03-2.298-2.431-2.547-4.202l5.058-.265c.153.748.524 1.32 1.111 1.714.588.386 1.34.58 2.258.58.902 0 1.626-.174 2.173-.52.556-.354.837-.809.846-1.364-.009-.467-.206-.849-.592-1.147-.386-.306-.982-.539-1.787-.7l-3.212-.64c-1.811-.362-3.159-.99-4.044-1.884-.878-.893-1.316-2.032-1.316-3.417 0-1.191.322-2.217.965-3.078.652-.862 1.566-1.526 2.741-1.993 1.183-.467 2.568-.7 4.154-.7 2.342 0 4.185.495 5.529 1.485 1.353.99 2.142 2.338 2.367 4.045Zm3.661 20.212v-25.5h5.071v3.115h.23c.225-.499.551-1.007.978-1.522.434-.523.998-.958 1.69-1.304.7-.354 1.57-.531 2.608-.531 1.352 0 2.6.354 3.743 1.063 1.143.7 2.057 1.758 2.741 3.175.684 1.409 1.026 3.175 1.026 5.3 0 2.069-.334 3.816-1.002 5.24-.66 1.417-1.562 2.492-2.705 3.224-1.135.725-2.406 1.087-3.815 1.087-.998 0-1.847-.165-2.548-.495-.692-.33-1.259-.745-1.702-1.244-.443-.507-.781-1.018-1.014-1.533h-.157v9.925h-5.144Zm5.035-16.228c0 1.103.153 2.065.459 2.886.306.821.749 1.461 1.328 1.92.58.45 1.284.676 2.113.676.837 0 1.545-.23 2.125-.688.58-.467 1.018-1.111 1.316-1.932.306-.829.459-1.783.459-2.862 0-1.07-.149-2.012-.447-2.825-.298-.813-.736-1.449-1.316-1.908-.579-.458-1.292-.688-2.137-.688-.837 0-1.545.221-2.125.664-.571.443-1.01 1.071-1.316 1.884-.306.813-.459 1.771-.459 2.873Zm24.86 9.635c-1.875 0-3.497-.398-4.866-1.195-1.36-.805-2.41-1.924-3.151-3.357-.74-1.44-1.111-3.111-1.111-5.01 0-1.916.371-3.59 1.111-5.023.741-1.441 1.791-2.56 3.151-3.357 1.369-.804 2.991-1.207 4.866-1.207 1.876 0 3.494.403 4.854 1.207 1.368.797 2.423 1.916 3.163 3.357.741 1.433 1.111 3.107 1.111 5.023 0 1.899-.37 3.57-1.111 5.01-.74 1.433-1.795 2.552-3.163 3.357-1.36.797-2.978 1.195-4.854 1.195Zm.024-3.984c.854 0 1.566-.242 2.137-.725.572-.491 1.003-1.159 1.292-2.004.298-.845.447-1.807.447-2.886 0-1.078-.149-2.04-.447-2.885-.289-.845-.72-1.513-1.292-2.004-.571-.491-1.283-.737-2.137-.737-.861 0-1.585.246-2.173.737-.579.491-1.018 1.159-1.316 2.004-.29.845-.435 1.807-.435 2.885 0 1.079.145 2.041.435 2.886.298.845.737 1.513 1.316 2.004.588.483 1.312.725 2.173.725Zm17.592-7.1V343h-5.143v-18.545h4.902v3.272h.217c.41-1.079 1.099-1.932 2.064-2.56.966-.636 2.138-.954 3.514-.954 1.288 0 2.411.282 3.369.845.957.564 1.702 1.369 2.233 2.415.531 1.038.797 2.278.797 3.719V343h-5.143v-10.891c.008-1.135-.282-2.02-.87-2.656-.587-.644-1.396-.966-2.427-.966-.692 0-1.303.149-1.835.447-.523.298-.933.732-1.231 1.304-.29.563-.439 1.244-.447 2.04Zm31.437-2.535-4.708.29c-.081-.403-.254-.765-.52-1.087-.265-.33-.615-.592-1.05-.785-.427-.201-.938-.302-1.533-.302-.797 0-1.469.169-2.017.507-.547.33-.821.773-.821 1.329 0 .442.177.817.531 1.122.355.306.962.552 1.824.737l3.356.676c1.803.37 3.147.966 4.033 1.787.885.821 1.328 1.9 1.328 3.236 0 1.215-.358 2.282-1.075 3.199-.708.918-1.682 1.634-2.922 2.15-1.231.507-2.652.76-4.262.76-2.455 0-4.411-.511-5.868-1.533-1.448-1.03-2.298-2.431-2.547-4.202l5.059-.265c.153.748.523 1.32 1.111 1.714.587.386 1.34.58 2.257.58.902 0 1.626-.174 2.174-.52.555-.354.837-.809.845-1.364-.008-.467-.205-.849-.592-1.147-.386-.306-.982-.539-1.787-.7l-3.211-.64c-1.811-.362-3.16-.99-4.045-1.884-.877-.893-1.316-2.032-1.316-3.417 0-1.191.322-2.217.966-3.078.652-.862 1.565-1.526 2.741-1.993 1.183-.467 2.567-.7 4.153-.7 2.342 0 4.186.495 5.53 1.485 1.352.99 2.141 2.338 2.366 4.045Zm8.95 13.607c-1.183 0-2.238-.205-3.163-.616-.926-.418-1.658-1.034-2.198-1.847-.531-.821-.797-1.843-.797-3.067 0-1.03.19-1.895.568-2.596.378-.7.893-1.263 1.545-1.69.652-.427 1.393-.748 2.222-.966.837-.217 1.714-.37 2.632-.459 1.079-.112 1.948-.217 2.608-.314.66-.104 1.139-.257 1.437-.458.298-.202.446-.499.446-.894v-.072c0-.765-.241-1.357-.724-1.775-.475-.419-1.151-.628-2.028-.628-.926 0-1.663.205-2.21.616-.547.402-.909.909-1.087 1.521l-4.757-.386c.242-1.127.717-2.101 1.425-2.922.708-.829 1.622-1.465 2.741-1.908 1.127-.451 2.431-.676 3.912-.676 1.03 0 2.016.121 2.958.362.95.242 1.791.616 2.523 1.123.741.507 1.324 1.159 1.751 1.956.427.789.64 1.735.64 2.837V343h-4.878v-2.572h-.145c-.298.58-.696 1.091-1.195 1.534-.499.434-1.099.776-1.799 1.026-.7.241-1.509.362-2.427.362Zm1.473-3.55c.757 0 1.425-.148 2.004-.446.58-.306 1.035-.717 1.365-1.232.33-.515.495-1.099.495-1.751v-1.968c-.161.105-.383.202-.664.29-.274.081-.584.157-.93.23-.346.064-.692.124-1.038.181-.347.048-.66.092-.942.133-.604.088-1.131.229-1.582.422-.451.193-.801.455-1.05.785-.25.322-.375.724-.375 1.207 0 .701.254 1.236.761 1.606.515.362 1.167.543 1.956.543Zm13.058 3.2v-24.727h5.143v9.297h.157c.226-.499.552-1.007.978-1.522.435-.523.998-.958 1.691-1.304.7-.354 1.569-.531 2.608-.531 1.352 0 2.6.354 3.743 1.063 1.143.7 2.056 1.758 2.74 3.175.685 1.409 1.027 3.175 1.027 5.3 0 2.069-.334 3.816-1.003 5.24-.66 1.417-1.561 2.492-2.704 3.224-1.135.725-2.407 1.087-3.815 1.087-.999 0-1.848-.165-2.548-.495-.692-.33-1.26-.745-1.702-1.244-.443-.507-.781-1.018-1.015-1.533h-.229V343h-5.071Zm5.035-9.273c0 1.103.153 2.065.459 2.886.305.821.748 1.461 1.328 1.92.579.45 1.284.676 2.113.676.837 0 1.545-.23 2.125-.688.579-.467 1.018-1.111 1.316-1.932.306-.829.458-1.783.458-2.862 0-1.07-.148-2.012-.446-2.825-.298-.813-.737-1.449-1.316-1.908-.58-.458-1.292-.688-2.137-.688-.838 0-1.546.221-2.125.664-.572.443-1.011 1.071-1.316 1.884-.306.813-.459 1.771-.459 2.873ZM934.426 343v-18.545h5.143V343h-5.143Zm2.583-20.936c-.764 0-1.42-.254-1.968-.761-.539-.515-.809-1.131-.809-1.847 0-.708.27-1.316.809-1.823.548-.515 1.204-.773 1.968-.773.765 0 1.417.258 1.956.773.548.507.821 1.115.821 1.823 0 .716-.273 1.332-.821 1.847-.539.507-1.191.761-1.956.761Zm11.824-3.791V343h-5.144v-24.727h5.144Zm4.12 24.727v-18.545h5.143V343h-5.143Zm2.584-20.936c-.765 0-1.421-.254-1.968-.761-.54-.515-.809-1.131-.809-1.847 0-.708.269-1.316.809-1.823.547-.515 1.203-.773 1.968-.773.764 0 1.416.258 1.956.773.547.507.821 1.115.821 1.823 0 .716-.274 1.332-.821 1.847-.54.507-1.192.761-1.956.761Zm13.513 21.238c-1.408 0-2.684-.362-3.827-1.087-1.135-.732-2.036-1.807-2.705-3.224-.66-1.424-.99-3.171-.99-5.24 0-2.125.343-3.891 1.027-5.3.684-1.417 1.593-2.475 2.728-3.175 1.143-.709 2.395-1.063 3.755-1.063 1.039 0 1.904.177 2.596.531.701.346 1.264.781 1.691 1.304.434.515.764 1.023.99 1.522h.157v-9.297h5.131V343h-5.071v-2.97h-.217c-.242.515-.584 1.026-1.027 1.533-.434.499-1.002.914-1.702 1.244-.692.33-1.537.495-2.536.495Zm1.63-4.093c.829 0 1.53-.226 2.101-.676.58-.459 1.023-1.099 1.328-1.92.314-.821.471-1.783.471-2.886 0-1.102-.153-2.06-.459-2.873-.305-.813-.748-1.441-1.328-1.884-.579-.443-1.284-.664-2.113-.664-.845 0-1.557.23-2.137.688-.579.459-1.018 1.095-1.316 1.908-.298.813-.446 1.755-.446 2.825 0 1.079.148 2.033.446 2.862.306.821.745 1.465 1.316 1.932.58.458 1.292.688 2.137.688Zm18.44 4.141c-1.183 0-2.237-.205-3.163-.616-.926-.418-1.658-1.034-2.198-1.847-.531-.821-.796-1.843-.796-3.067 0-1.03.189-1.895.567-2.596.378-.7.893-1.263 1.545-1.69.652-.427 1.393-.748 2.222-.966.837-.217 1.715-.37 2.632-.459 1.079-.112 1.948-.217 2.608-.314.66-.104 1.139-.257 1.437-.458.298-.202.447-.499.447-.894v-.072c0-.765-.242-1.357-.725-1.775-.475-.419-1.151-.628-2.028-.628-.926 0-1.662.205-2.21.616-.547.402-.909.909-1.086 1.521l-4.757-.386c.241-1.127.716-2.101 1.424-2.922.709-.829 1.622-1.465 2.741-1.908 1.127-.451 2.431-.676 3.912-.676 1.03 0 2.016.121 2.958.362.95.242 1.791.616 2.523 1.123.741.507 1.325 1.159 1.751 1.956.427.789.64 1.735.64 2.837V343h-4.878v-2.572h-.145c-.297.58-.696 1.091-1.195 1.534-.499.434-1.099.776-1.799 1.026-.7.241-1.509.362-2.427.362Zm1.473-3.55c.757 0 1.425-.148 2.004-.446.58-.306 1.035-.717 1.365-1.232.33-.515.495-1.099.495-1.751v-1.968c-.161.105-.382.202-.664.29-.274.081-.584.157-.93.23-.346.064-.692.124-1.038.181-.346.048-.66.092-.942.133-.604.088-1.131.229-1.582.422-.45.193-.801.455-1.05.785-.25.322-.374.724-.374 1.207 0 .701.253 1.236.76 1.606.515.362 1.167.543 1.956.543Zm19.797 3.502c-1.41 0-2.69-.362-3.83-1.087-1.13-.732-2.04-1.807-2.7-3.224-.66-1.424-.99-3.171-.99-5.24 0-2.125.34-3.891 1.02-5.3.69-1.417 1.6-2.475 2.73-3.175 1.14-.709 2.4-1.063 3.76-1.063 1.03 0 1.9.177 2.59.531.7.346 1.27.781 1.69 1.304.44.515.77 1.023.99 1.522h.16v-9.297h5.13V343h-5.07v-2.97h-.22c-.24.515-.58 1.026-1.02 1.533-.44.499-1.01.914-1.71 1.244-.69.33-1.53.495-2.53.495Zm1.63-4.093c.83 0 1.53-.226 2.1-.676.58-.459 1.02-1.099 1.33-1.92.31-.821.47-1.783.47-2.886 0-1.102-.15-2.06-.46-2.873-.31-.813-.75-1.441-1.33-1.884-.58-.443-1.28-.664-2.11-.664-.85 0-1.56.23-2.14.688-.58.459-1.02 1.095-1.31 1.908-.3.813-.45 1.755-.45 2.825 0 1.079.15 2.033.45 2.862.3.821.74 1.465 1.31 1.932.58.458 1.29.688 2.14.688Zm21.6 4.153c-1.91 0-3.55-.386-4.92-1.159-1.37-.781-2.43-1.883-3.17-3.308-.74-1.433-1.11-3.127-1.11-5.083 0-1.908.37-3.582 1.11-5.023.74-1.441 1.78-2.564 3.13-3.369 1.35-.804 2.94-1.207 4.76-1.207 1.22 0 2.36.197 3.41.592 1.07.386 1.99.97 2.78 1.75.8.781 1.42 1.763 1.86 2.946.44 1.176.66 2.552.66 4.13v1.412h-15.66v-3.187h10.82c0-.741-.16-1.397-.48-1.968-.32-.572-.77-1.018-1.34-1.34-.56-.33-1.22-.495-1.97-.495-.78 0-1.47.181-2.08.543-.59.354-1.06.833-1.4 1.437-.33.595-.51 1.259-.52 1.992v3.03c0 .918.17 1.711.51 2.379.35.668.83 1.183 1.46 1.545.63.363 1.37.544 2.24.544.57 0 1.09-.081 1.57-.242.47-.161.88-.402 1.22-.724.33-.322.59-.717.77-1.183l4.75.314c-.24 1.142-.73 2.141-1.48 2.994-.74.845-1.7 1.505-2.87 1.98-1.17.467-2.52.7-4.05.7Z"/></g><g clip-path="url(#f)"><path fill="#D50000" d="M179.324 316.987c44.614 0 80.782-19.919 80.782-44.49s-36.168-44.489-80.782-44.489c-44.615 0-80.7822 19.918-80.7822 44.489 0 24.571 36.1672 44.49 80.7822 44.49Z"/><path fill="#D50000" d="M183.416 389.38c74.569 0 135.02-25.993 135.02-58.056 0-32.064-60.451-58.056-135.02-58.056-74.57 0-135.0208 25.992-135.0208 58.056 0 32.063 60.4508 58.056 135.0208 58.056Z"/><path fill="#D50000" d="M116.147 315.57c22.502 0 40.744-13.131 40.744-29.329s-18.242-29.329-40.744-29.329c-22.5023 0-40.744 13.131-40.744 29.329s18.2417 29.329 40.744 29.329ZM267.557 318.003c22.813 0 41.306-11.211 41.306-25.041s-18.493-25.042-41.306-25.042-41.306 11.212-41.306 25.042c0 13.83 18.493 25.041 41.306 25.041Z"/><path fill="#D50000" d="M317.081 377.448c33.092 0 59.919-16.915 59.919-37.78 0-20.865-26.827-37.78-59.919-37.78-33.093 0-59.92 16.915-59.92 37.78 0 20.865 26.827 37.78 59.92 37.78ZM63.9922 388.051c35.3418 0 63.9918-19.262 63.9918-43.021 0-23.76-28.65-43.021-63.9918-43.021C28.6503 302.009 0 321.27 0 345.03c0 23.759 28.6503 43.021 63.9922 43.021ZM209.891 403.749c33.053 0 59.848-10.162 59.848-22.699 0-12.536-26.795-22.699-59.848-22.699s-59.847 10.163-59.847 22.699c0 12.537 26.794 22.699 59.847 22.699Z"/><path fill="#D50000" d="M125.029 405.017c27.622 0 50.014-10.679 50.014-23.853 0-13.174-22.392-23.854-50.014-23.854-27.6225 0-50.0147 10.68-50.0147 23.854s22.3922 23.853 50.0147 23.853ZM92.4344 325.961c22.7856 0 41.2576-11.647 41.2576-26.014 0-14.367-18.472-26.014-41.2576-26.014-22.7858 0-41.2573 11.647-41.2573 26.014 0 14.367 18.4715 26.014 41.2573 26.014ZM272.426 384.257c17.458 0 31.611-6.794 31.611-15.176 0-8.381-14.153-15.176-31.611-15.176s-31.61 6.795-31.61 15.176c0 8.382 14.152 15.176 31.61 15.176Z"/><path fill="#fff" d="M76.1364 326.784v-4.057H95.25v4.057h-7.125V346h-4.8636v-19.216h-7.125ZM96.4943 346v-17.455h4.6937v3.046h.181c.319-1.083.853-1.902 1.603-2.455.75-.56 1.613-.841 2.59-.841.243 0 .504.016.785.046.28.03.526.072.738.125v4.295c-.227-.068-.541-.128-.943-.181-.401-.053-.769-.08-1.102-.08-.712 0-1.349.155-1.909.466-.553.303-.993.727-1.319 1.273-.318.545-.477 1.174-.477 1.886V346h-4.8407Zm17.5707.33c-1.113 0-2.106-.194-2.977-.58-.871-.394-1.561-.973-2.068-1.739-.5-.772-.75-1.734-.75-2.886 0-.97.178-1.784.534-2.443.356-.659.841-1.19 1.455-1.591.613-.402 1.31-.705 2.09-.909.788-.205 1.614-.349 2.478-.432 1.015-.106 1.833-.205 2.454-.295.621-.099 1.072-.243 1.353-.432.28-.19.42-.47.42-.841v-.068c0-.72-.227-1.277-.682-1.671-.447-.394-1.083-.591-1.909-.591-.871 0-1.564.193-2.079.58-.516.379-.857.856-1.023 1.432l-4.477-.364c.227-1.061.674-1.977 1.34-2.75.667-.78 1.527-1.379 2.58-1.795 1.061-.425 2.288-.637 3.682-.637.969 0 1.898.114 2.784.341.894.227 1.685.58 2.375 1.057.697.477 1.246 1.091 1.648 1.841.401.742.602 1.632.602 2.67V346h-4.591v-2.42h-.136c-.281.545-.656 1.026-1.125 1.443-.47.409-1.034.731-1.694.966-.659.227-1.42.341-2.284.341Zm1.387-3.341c.712 0 1.341-.141 1.886-.421.546-.288.974-.674 1.284-1.159.311-.485.466-1.034.466-1.648v-1.852c-.151.099-.36.189-.625.273-.258.076-.549.148-.875.216-.326.06-.651.117-.977.17-.326.046-.621.087-.887.125-.568.084-1.064.216-1.488.398-.424.182-.754.428-.989.739-.235.303-.352.681-.352 1.136 0 .659.239 1.163.716 1.511.485.341 1.098.512 1.841.512Zm17.039-7.08V346h-4.84v-17.455h4.613v3.08h.205c.386-1.015 1.034-1.818 1.943-2.409.909-.599 2.011-.898 3.307-.898 1.212 0 2.269.265 3.17.796.902.53 1.602 1.288 2.102 2.272.5.978.75 2.144.75 3.5V346h-4.84v-10.25c.007-1.068-.266-1.902-.819-2.5-.553-.606-1.314-.909-2.284-.909-.651 0-1.227.14-1.727.42-.492.281-.879.69-1.159 1.228-.273.53-.413 1.17-.421 1.92Zm29.589-2.386-4.432.272c-.076-.378-.239-.719-.489-1.022-.25-.311-.579-.557-.989-.739-.401-.189-.882-.284-1.443-.284-.75 0-1.382.159-1.897.477-.516.311-.773.728-.773 1.25 0 .417.166.769.5 1.057.333.288.905.519 1.716.693l3.159.637c1.697.348 2.962.909 3.795 1.681.834.773 1.25 1.788 1.25 3.046 0 1.144-.337 2.148-1.011 3.011-.667.864-1.583 1.538-2.75 2.023-1.159.477-2.496.716-4.011.716-2.311 0-4.152-.481-5.523-1.443-1.364-.97-2.163-2.288-2.398-3.955l4.761-.25c.144.705.493 1.243 1.046 1.614.553.363 1.261.545 2.125.545.848 0 1.53-.163 2.045-.488.523-.334.788-.762.796-1.284-.008-.44-.193-.8-.557-1.08-.364-.288-.924-.508-1.682-.659l-3.023-.602c-1.704-.341-2.973-.932-3.806-1.773-.826-.841-1.239-1.913-1.239-3.216 0-1.121.303-2.087.909-2.898.614-.81 1.474-1.435 2.58-1.875 1.113-.439 2.416-.659 3.909-.659 2.204 0 3.939.466 5.204 1.398 1.273.932 2.015 2.201 2.228 3.807Zm3.446 19.022v-24h4.772v2.932h.216c.212-.469.519-.947.921-1.432.409-.492.939-.901 1.591-1.227.659-.333 1.477-.5 2.454-.5 1.273 0 2.447.334 3.523 1 1.076.659 1.935 1.655 2.579 2.989.644 1.326.966 2.988.966 4.988 0 1.947-.314 3.591-.943 4.932-.621 1.334-1.47 2.345-2.545 3.034-1.069.682-2.265 1.023-3.591 1.023-.94 0-1.739-.155-2.398-.466-.651-.31-1.186-.701-1.602-1.17-.417-.478-.735-.959-.955-1.443h-.148v9.34h-4.84Zm4.738-15.272c0 1.038.144 1.943.432 2.716.288.772.705 1.375 1.25 1.806.545.425 1.208.637 1.989.637.788 0 1.454-.216 2-.648.545-.439.958-1.045 1.238-1.818.288-.78.432-1.678.432-2.693 0-1.008-.14-1.894-.42-2.659-.281-.766-.694-1.364-1.239-1.796-.545-.432-1.216-.648-2.011-.648-.788 0-1.455.209-2 .625-.538.417-.951 1.008-1.239 1.773-.288.765-.432 1.667-.432 2.705Zm20.489 9.057c-1.114 0-2.106-.194-2.977-.58-.872-.394-1.561-.973-2.069-1.739-.5-.772-.75-1.734-.75-2.886 0-.97.178-1.784.534-2.443.357-.659.841-1.19 1.455-1.591.614-.402 1.311-.705 2.091-.909.788-.205 1.614-.349 2.477-.432 1.015-.106 1.834-.205 2.455-.295.621-.099 1.072-.243 1.352-.432.28-.19.42-.47.42-.841v-.068c0-.72-.227-1.277-.681-1.671-.447-.394-1.084-.591-1.909-.591-.872 0-1.565.193-2.08.58-.515.379-.856.856-1.023 1.432l-4.477-.364c.227-1.061.674-1.977 1.341-2.75.667-.78 1.526-1.379 2.579-1.795 1.061-.425 2.288-.637 3.682-.637.97 0 1.898.114 2.784.341.894.227 1.686.58 2.375 1.057.697.477 1.247 1.091 1.648 1.841.402.742.602 1.632.602 2.67V346h-4.591v-2.42h-.136c-.28.545-.655 1.026-1.125 1.443-.47.409-1.034.731-1.693.966-.659.227-1.421.341-2.284.341Zm1.386-3.341c.712 0 1.341-.141 1.887-.421.545-.288.973-.674 1.284-1.159.31-.485.466-1.034.466-1.648v-1.852c-.152.099-.36.189-.625.273-.258.076-.55.148-.875.216-.326.06-.652.117-.978.17-.325.046-.621.087-.886.125-.568.084-1.064.216-1.489.398-.424.182-.753.428-.988.739-.235.303-.353.681-.353 1.136 0 .659.239 1.163.716 1.511.485.341 1.099.512 1.841.512ZM204.338 346v-17.455h4.693v3.046h.182c.318-1.083.852-1.902 1.602-2.455.75-.56 1.614-.841 2.591-.841.243 0 .504.016.784.046.281.03.527.072.739.125v4.295c-.227-.068-.542-.128-.943-.181-.402-.053-.769-.08-1.102-.08-.713 0-1.349.155-1.91.466-.553.303-.992.727-1.318 1.273-.318.545-.477 1.174-.477 1.886V346h-4.841Zm20.236.341c-1.796 0-3.341-.364-4.636-1.091-1.288-.735-2.281-1.773-2.978-3.114-.697-1.348-1.045-2.943-1.045-4.784 0-1.795.348-3.371 1.045-4.727.697-1.356 1.678-2.413 2.943-3.17 1.273-.758 2.766-1.137 4.478-1.137 1.151 0 2.223.186 3.216.557 1 .364 1.871.913 2.613 1.648.75.735 1.334 1.659 1.75 2.772.417 1.107.625 2.402.625 3.887v1.329h-14.738v-3h10.181c0-.697-.151-1.314-.454-1.852-.303-.538-.724-.958-1.262-1.261-.53-.311-1.147-.466-1.852-.466-.735 0-1.386.17-1.954.511-.561.334-1 .784-1.318 1.352-.319.561-.482 1.186-.489 1.875v2.853c0 .863.159 1.61.477 2.238.326.629.784 1.114 1.375 1.455.591.341 1.292.511 2.102.511.538 0 1.031-.075 1.478-.227.447-.152.829-.379 1.147-.682.319-.303.561-.674.728-1.113l4.477.295c-.227 1.076-.693 2.015-1.398 2.818-.697.796-1.598 1.417-2.704 1.864-1.099.439-2.368.659-3.807.659Zm1.977-19.886-2.284-2.773-2.284 2.773h-4.125v-.16l4.602-5h3.602l4.614 5v.16h-4.125Zm14.034 9.454V346h-4.841v-17.455h4.614v3.08h.204c.387-1.015 1.035-1.818 1.944-2.409.909-.599 2.011-.898 3.306-.898 1.213 0 2.269.265 3.171.796.901.53 1.602 1.288 2.102 2.272.5.978.75 2.144.75 3.5V346h-4.841v-10.25c.008-1.068-.265-1.902-.818-2.5-.553-.606-1.314-.909-2.284-.909-.651 0-1.227.14-1.727.42-.493.281-.879.69-1.159 1.228-.273.53-.413 1.17-.421 1.92Zm22.952 10.432c-1.788 0-3.326-.379-4.614-1.136-1.28-.766-2.265-1.826-2.954-3.182-.682-1.356-1.023-2.917-1.023-4.682 0-1.788.345-3.356 1.034-4.705.697-1.356 1.686-2.413 2.966-3.17 1.28-.765 2.803-1.148 4.568-1.148 1.523 0 2.856.277 4 .83 1.144.553 2.049 1.329 2.716 2.329.667 1 1.034 2.175 1.102 3.523h-4.568c-.129-.871-.469-1.572-1.023-2.102-.545-.538-1.261-.807-2.147-.807-.75 0-1.406.204-1.966.614-.553.401-.985.988-1.296 1.761-.31.773-.466 1.708-.466 2.807 0 1.113.152 2.06.455 2.841.311.78.746 1.375 1.307 1.784.56.409 1.216.613 1.966.613.553 0 1.049-.113 1.488-.341.447-.227.815-.556 1.103-.988.295-.44.488-.966.579-1.58h4.568c-.075 1.334-.439 2.508-1.091 3.523-.643 1.008-1.534 1.795-2.67 2.364-1.136.568-2.481.852-4.034.852Zm10.895-.341v-17.455h4.841V346h-4.841Zm2.432-19.705c-.72 0-1.337-.238-1.853-.715-.507-.485-.761-1.065-.761-1.739 0-.667.254-1.239.761-1.716.516-.485 1.133-.727 1.853-.727.719 0 1.333.242 1.841.727.515.477.772 1.049.772 1.716 0 .674-.257 1.254-.772 1.739-.508.477-1.122.715-1.841.715Zm11.264 20.035c-1.114 0-2.106-.194-2.977-.58-.872-.394-1.561-.973-2.069-1.739-.5-.772-.75-1.734-.75-2.886 0-.97.178-1.784.534-2.443.357-.659.841-1.19 1.455-1.591.614-.402 1.311-.705 2.091-.909.788-.205 1.614-.349 2.477-.432 1.015-.106 1.834-.205 2.455-.295.621-.099 1.072-.243 1.352-.432.28-.19.42-.47.42-.841v-.068c0-.72-.227-1.277-.681-1.671-.447-.394-1.084-.591-1.909-.591-.872 0-1.565.193-2.08.58-.515.379-.856.856-1.023 1.432l-4.477-.364c.227-1.061.674-1.977 1.341-2.75.667-.78 1.526-1.379 2.579-1.795 1.061-.425 2.288-.637 3.682-.637.97 0 1.898.114 2.784.341.894.227 1.686.58 2.375 1.057.697.477 1.247 1.091 1.648 1.841.402.742.602 1.632.602 2.67V346h-4.591v-2.42h-.136c-.28.545-.655 1.026-1.125 1.443-.47.409-1.034.731-1.693.966-.659.227-1.421.341-2.284.341Zm1.386-3.341c.712 0 1.341-.141 1.887-.421.545-.288.973-.674 1.284-1.159.31-.485.466-1.034.466-1.648v-1.852c-.152.099-.36.189-.625.273-.258.076-.55.148-.875.216-.326.06-.652.117-.978.17-.325.046-.621.087-.886.125-.568.084-1.064.216-1.489.398-.424.182-.753.428-.988.739-.235.303-.353.681-.353 1.136 0 .659.239 1.163.716 1.511.485.341 1.099.512 1.841.512Z"/></g><defs><clipPath id="a"><path fill="#fff" d="M343 106h377.484v177.177H343z"/></clipPath><clipPath id="b"><path fill="#fff" d="M349 316h377.484v177.177H349z"/></clipPath><clipPath id="c"><path fill="#fff" d="M675 3h377.484v177.177H675z"/></clipPath><clipPath id="d"><path fill="#fff" d="M14 0h377.484v177.177H14z"/></clipPath><clipPath id="e"><path fill="#fff" d="M697 229h377.484v177.177H697z"/></clipPath><clipPath id="f"><path fill="#fff" d="M0 228h377v177H0z"/></clipPath></defs></svg>